<svg width="51" height="13" viewBox="0 0 51 13" fill="none" xmlns="http://www.w3.org/2000/svg">
<path d="M0 0.15625H2.49219V12.3672H0V0.15625ZM5.65625 0.15625H12.0938C13.0312 0.15625 13.8438 0.257812 14.5312 0.460938C15.2188 0.664062 15.7891 0.958333 16.2422 1.34375C16.6953 1.72396 17.0312 2.1901 17.25 2.74219C17.474 3.29427 17.5859 3.91667 17.5859 4.60938C17.5859 5.26042 17.4766 5.86198 17.2578 6.41406C17.0391 6.96615 16.7031 7.44531 16.25 7.85156C15.8021 8.2526 15.2344 8.56771 14.5469 8.79688C13.8594 9.02083 13.0469 9.13281 12.1094 9.13281L8.13281 9.125V12.3672H5.65625V0.15625ZM12.1562 6.98438C12.625 6.98438 13.0339 6.92969 13.3828 6.82031C13.737 6.70573 14.0312 6.54688 14.2656 6.34375C14.5052 6.13542 14.6823 5.88542 14.7969 5.59375C14.9167 5.29688 14.9766 4.96875 14.9766 4.60938C14.9766 3.88542 14.7396 3.32292 14.2656 2.92188C13.7969 2.51562 13.0938 2.3125 12.1562 2.3125H8.13281V6.98438H12.1562ZM20.3047 0.15625H22.7812L27.2188 4.60938L31.6562 0.15625H34.1328V12.3672H31.6562V3.58594L27.2188 7.85938L22.7812 3.58594V12.3672H20.3047V0.15625ZM38.1797 8.73438C38.6224 8.98438 39.0703 9.21094 39.5234 9.41406C39.9818 9.61198 40.4557 9.78125 40.9453 9.92188C41.4349 10.0573 41.9479 10.1615 42.4844 10.2344C43.026 10.3073 43.6016 10.3438 44.2109 10.3438C44.9453 10.3438 45.5703 10.2969 46.0859 10.2031C46.6016 10.1042 47.0208 9.97135 47.3438 9.80469C47.6719 9.63281 47.9089 9.42969 48.0547 9.19531C48.2057 8.96094 48.2812 8.70573 48.2812 8.42969C48.2812 7.98698 48.0964 7.63802 47.7266 7.38281C47.3568 7.1224 46.7865 6.99219 46.0156 6.99219C45.6771 6.99219 45.3203 7.01562 44.9453 7.0625C44.5703 7.10417 44.1901 7.15104 43.8047 7.20312C43.4245 7.25521 43.0469 7.30469 42.6719 7.35156C42.3021 7.39323 41.9531 7.41406 41.625 7.41406C41.0781 7.41406 40.5521 7.34375 40.0469 7.20312C39.5469 7.0625 39.1016 6.85156 38.7109 6.57031C38.3255 6.28906 38.0182 5.9375 37.7891 5.51562C37.5599 5.09375 37.4453 4.60156 37.4453 4.03906C37.4453 3.70573 37.4896 3.375 37.5781 3.04688C37.6719 2.71875 37.8177 2.40625 38.0156 2.10938C38.2188 1.80729 38.4792 1.52865 38.7969 1.27344C39.1146 1.01302 39.4974 0.789062 39.9453 0.601562C40.3984 0.414062 40.9193 0.268229 41.5078 0.164062C42.1016 0.0546875 42.776 0 43.5312 0C44.0781 0 44.6276 0.03125 45.1797 0.09375C45.7318 0.151042 46.2682 0.234375 46.7891 0.34375C47.3151 0.453125 47.8203 0.585938 48.3047 0.742188C48.7891 0.893229 49.2396 1.0625 49.6562 1.25L48.5703 3.25C48.2266 3.09896 47.8568 2.96094 47.4609 2.83594C47.0651 2.70573 46.651 2.59375 46.2188 2.5C45.7865 2.40625 45.3385 2.33333 44.875 2.28125C44.4167 2.22396 43.9479 2.19531 43.4688 2.19531C42.7865 2.19531 42.224 2.24479 41.7812 2.34375C41.3438 2.44271 40.9948 2.57031 40.7344 2.72656C40.474 2.8776 40.2917 3.04948 40.1875 3.24219C40.0885 3.42969 40.0391 3.61719 40.0391 3.80469C40.0391 4.16927 40.2031 4.46875 40.5312 4.70312C40.8594 4.93229 41.3594 5.04688 42.0312 5.04688C42.3021 5.04688 42.612 5.02865 42.9609 4.99219C43.3151 4.95052 43.6849 4.90625 44.0703 4.85938C44.4609 4.8125 44.8568 4.77083 45.2578 4.73438C45.6641 4.69271 46.0573 4.67188 46.4375 4.67188C47.1562 4.67188 47.7917 4.7526 48.3438 4.91406C48.901 5.07552 49.3672 5.30729 49.7422 5.60938C50.1172 5.90625 50.401 6.26823 50.5938 6.69531C50.7865 7.11719 50.8828 7.59115 50.8828 8.11719C50.8828 8.82031 50.7188 9.44792 50.3906 10C50.0677 10.5469 49.6042 11.0104 49 11.3906C48.401 11.7656 47.6771 12.0521 46.8281 12.25C45.9792 12.4427 45.0339 12.5391 43.9922 12.5391C43.3047 12.5391 42.6328 12.4948 41.9766 12.4062C41.3203 12.3229 40.6901 12.2031 40.0859 12.0469C39.487 11.8854 38.9141 11.6953 38.3672 11.4766C37.8255 11.2526 37.3229 11.0078 36.8594 10.7422L38.1797 8.73438Z" fill="currentColor"/>
</svg>
